<svg xmlns="http://www.w3.org/2000/svg" version="1.1" xmlns:xlink="http://www.w3.org/1999/xlink" xmlns:svgjs="http://svgjs.com/svgjs" width="1440" height="560" preserveAspectRatio="none" viewBox="0 0 1440 560"><g mask="url(&quot;#SvgjsMask1000&quot;)" fill="none"><rect width="1440" height="560" x="0" y="0" fill="#0e2a47"></rect><path d="M824.02 273.25 a30.72 30.72 0 1 0 61.44 0 a30.72 30.72 0 1 0 -61.44 0z" fill="#d3b714"></path><path d="M204.16 4.53 a40.76 40.76 0 1 0 81.52 0 a40.76 40.76 0 1 0 -81.52 0z" fill="#e73635"></path><path d="M894.27 474.14L922.25 474.14L922.25 502.12L894.27 502.12z" fill="#037b0b"></path><path d="M792.47 129.72 a49.13 49.13 0 1 0 98.26 0 a49.13 49.13 0 1 0 -98.26 0z" fill="#e73635"></path><path d="M882.27 471.38L911.83 471.38L911.83 491.48L882.27 491.48z" fill="#037b0b"></path><path d="M1149.99 496.18 a19.37 19.37 0 1 0 38.74 0 a19.37 19.37 0 1 0 -38.74 0z" stroke="#e73635"></path><path d="M384.15 355.76L422.79 355.76L422.79 394.4L384.15 394.4z" stroke="#e73635"></path><path d="M89.36 541.5L97.76 541.5L97.76 558.53L89.36 558.53z" fill="#e73635"></path><path d="M207.24 509.39a0.69 0.69 0 1 0 0.63 1.23z" fill="#037b0b"></path><path d="M710.16 337.74L754.58 337.74L754.58 382.16L710.16 382.16z" stroke="#e73635"></path><path d="M278.9 307.61L317.05 307.61L317.05 323.09L278.9 323.09z" stroke="#037b0b"></path><path d="M623.92 517.1a27.55 27.55 0 1 0 55.02-2.88z" stroke="#d3b714"></path><path d="M402.74 284.28L429 284.28L429 310.54L402.74 310.54z" fill="#037b0b"></path><path d="M1369.95 455.75L1398.59 455.75L1398.59 493.8L1369.95 493.8z" fill="#037b0b"></path><path d="M722.86 138.72L753.39 138.72L753.39 158.42L722.86 158.42z" stroke="#e73635"></path><path d="M749.12 440.29 a27.89 27.89 0 1 0 55.78 0 a27.89 27.89 0 1 0 -55.78 0z" stroke="#037b0b"></path><path d="M715.87 143.54L728.5 143.54L728.5 156.17L715.87 156.17z" fill="#d3b714"></path><path d="M857.32 151.44L867.36 151.44L867.36 161.48L857.32 161.48z" stroke="#037b0b"></path><path d="M1409 303.78L1432 303.78L1432 339.66L1409 339.66z" fill="#037b0b"></path><path d="M575.77 191.2a2.67 2.67 0 1 0 5.34 0.24z" stroke="#e73635"></path><path d="M563.78 24.83L611.38 24.83L611.38 51.3L563.78 51.3z" stroke="#d3b714"></path><path d="M411.24 233.41a44.5 44.5 0 1 0-28.46 84.33z" stroke="#e73635"></path><path d="M1387 54.69 a42.76 42.76 0 1 0 85.52 0 a42.76 42.76 0 1 0 -85.52 0z" stroke="#e73635"></path><path d="M1239.5 399.83L1253.06 399.83L1253.06 413.39L1239.5 413.39z" stroke="#e73635"></path><path d="M1181.09 351.79a43.45 43.45 0 1 0 30.06-81.53z" stroke="#037b0b"></path><path d="M1116.88 212.12a42.93 42.93 0 1 0 82.38 24.2z" stroke="#d3b714"></path><path d="M1061.15 140.62L1116.25 140.62L1116.25 183.48L1061.15 183.48z" stroke="#d3b714"></path><path d="M685.15 265.27 a52.43 52.43 0 1 0 104.86 0 a52.43 52.43 0 1 0 -104.86 0z" fill="#e73635"></path><path d="M1068.18 60.81L1088.59 60.81L1088.59 82.97L1068.18 82.97z" stroke="#037b0b"></path><path d="M250.38 20.43L279.38 20.43L279.38 49.43L250.38 49.43z" fill="#d3b714"></path><path d="M400.11 183.68L453.76 183.68L453.76 205.73L400.11 205.73z" fill="#e73635"></path><path d="M356.44 574.07a27.55 27.55 0 1 0-43.19-34.22z" stroke="#d3b714"></path><path d="M330.43 463.23 a2.29 2.29 0 1 0 4.58 0 a2.29 2.29 0 1 0 -4.58 0z" fill="#037b0b"></path></g><defs><mask id="SvgjsMask1000"><rect width="1440" height="560" fill="#ffffff"></rect></mask></defs></svg>